<svg width="62" height="64" viewBox="0 0 62 64" fill="none" xmlns="http://www.w3.org/2000/svg">
<path d="M36.2166 48.5703L18.1073 39.5156L-0.00195312 48.5703L18.1073 57.6249L36.2166 48.5703Z" fill="#4D4D4D"/>
<path d="M36.2089 48.578L18.0996 39.5233V21.4141L36.2089 30.4687V48.578Z" fill="#999999"/>
<path d="M18.1073 39.5233L-0.00195312 48.578V30.4687L18.1073 21.4141V39.5233Z" fill="#999999"/>
<path d="M18.1073 57.6327L-0.00195312 48.578V30.4688L18.1073 39.5234V57.6327Z" fill="#CCCCCC"/>
<path d="M18.0996 57.6327L36.2089 48.578V30.4688L18.0996 39.5234V57.6327Z" fill="#CCCCCC"/>
<path d="M36.2166 30.4687L18.1073 21.4141L-0.00195312 30.4687L18.1073 39.5233L36.2166 30.4687Z" fill="#939393"/>
<path d="M61.2244 54.5859L43.1151 45.5312L25.0059 54.5859L43.1151 63.6405L61.2244 54.5859Z" fill="#4D4D4D"/>
<path d="M61.2167 54.5936L43.1074 45.539V27.4297L61.2167 36.4843V54.5936Z" fill="#999999"/>
<path d="M43.1151 45.539L25.0059 54.5936V36.4843L43.1151 27.4297V45.539Z" fill="#999999"/>
<path d="M43.1151 63.6483L25.0059 54.5936V36.4844L43.1151 45.539V63.6483Z" fill="#CCCCCC"/>
<path d="M43.1074 63.6483L61.2167 54.5936V36.4844L43.1074 45.539V63.6483Z" fill="#CCCCCC"/>
<path d="M61.2244 36.4843L43.1151 27.4297L25.0059 36.4843L43.1151 45.539L61.2244 36.4843Z" fill="#939393"/>
<path d="M53.2166 27.5781L35.1073 18.5234L16.998 27.5781L35.1073 36.6327L53.2166 27.5781Z" fill="#4D4D4D"/>
<path d="M53.2089 27.5858L35.0996 18.5311V0.421875L53.2089 9.47651V27.5858Z" fill="#999999"/>
<path d="M35.1073 18.5311L16.998 27.5858V9.47651L35.1073 0.421875V18.5311Z" fill="#999999"/>
<path d="M35.1073 36.6405L16.998 27.5858V9.47656L35.1073 18.5312V36.6405Z" fill="#CCCCCC"/>
<path d="M35.0996 36.6405L53.2089 27.5858V9.47656L35.0996 18.5312V36.6405Z" fill="#CCCCCC"/>
<path d="M53.2166 9.47651L35.1073 0.421875L16.998 9.47651L35.1073 18.5312L53.2166 9.47651Z" fill="#939393"/>
</svg>
