<svg width="94" height="94" viewBox="0 0 94 94" fill="none" xmlns="http://www.w3.org/2000/svg">
<g filter="url(#filter0_bi_1_2624)">
<circle cx="47" cy="47" r="47" fill="white" fill-opacity="0.44"/>
</g>
<path d="M20.3287 42.1563C6.32699 44.7809 36.3837 76.5023 51.1144 76.4066C65.8451 76.311 77.7087 64.2281 77.6126 49.4189C77.5164 34.6096 53.633 7.86085 50.7661 22.7775C49.9086 27.2396 35.573 22.6689 32.6359 26.2477C23.2632 37.6679 36.7943 39.0698 20.3287 42.1563Z" fill="url(#paint0_linear_1_2624)"/>
<g filter="url(#filter1_ii_1_2624)">
<path d="M70.4999 40.0005C72.4328 34.0271 66.0023 27.1773 64.7013 26.1195C62.533 24.5639 57.6388 17.907 48.9036 22.3869C41.3891 26.2408 30.0575 21.7353 32.1767 30.5995C35.5 44.5005 17.5 39.5005 23.2556 50.0141C28.7287 60.0115 26.9727 62.856 32.9201 64.9467C41.5 67.9629 44.8362 63.1702 52.4349 50.3865C59.5 38.5005 67.1392 50.3865 70.4999 40.0005Z" fill="#474747"/>
</g>
<ellipse cx="1.44966" cy="1.20805" rx="1.44966" ry="1.20805" transform="matrix(-1 0 0 1 44.7383 31.4912)" fill="white"/>
<circle cx="0.483221" cy="0.483221" r="0.483221" transform="matrix(-1 0 0 1 42.8047 35.3569)" fill="white"/>
<ellipse cx="5.31544" cy="5.55705" rx="5.31544" ry="5.55705" transform="matrix(-1 0 0 1 68.418 50.8203)" fill="#3E3E3E"/>
<circle cx="2.41611" cy="2.41611" r="1.91611" transform="matrix(-1 0 0 1 65.5156 57.1033)" stroke="#FFA800"/>
<defs>
<filter id="filter0_bi_1_2624" x="-4" y="-4" width="102" height="102" filterUnits="userSpaceOnUse" color-interpolation-filters="sRGB">
<feFlood flood-opacity="0" result="BackgroundImageFix"/>
<feGaussianBlur in="BackgroundImageFix" stdDeviation="2"/>
<feComposite in2="SourceAlpha" operator="in" result="effect1_backgroundBlur_1_2624"/>
<feBlend mode="normal" in="SourceGraphic" in2="effect1_backgroundBlur_1_2624" result="shape"/>
<feColorMatrix in="SourceAlpha" type="matrix" values="0 0 0 0 0 0 0 0 0 0 0 0 0 0 0 0 0 0 127 0" result="hardAlpha"/>
<feOffset dy="4"/>
<feGaussianBlur stdDeviation="11.75"/>
<feComposite in2="hardAlpha" operator="arithmetic" k2="-1" k3="1"/>
<feColorMatrix type="matrix" values="0 0 0 0 0 0 0 0 0 0 0 0 0 0 0 0 0 0 0.41 0"/>
<feBlend mode="normal" in2="shape" result="effect2_innerShadow_1_2624"/>
</filter>
<filter id="filter1_ii_1_2624" x="22.1114" y="15.8608" width="52.748" height="49.9583" filterUnits="userSpaceOnUse" color-interpolation-filters="sRGB">
<feFlood flood-opacity="0" result="BackgroundImageFix"/>
<feBlend mode="normal" in="SourceGraphic" in2="BackgroundImageFix" result="shape"/>
<feColorMatrix in="SourceAlpha" type="matrix" values="0 0 0 0 0 0 0 0 0 0 0 0 0 0 0 0 0 0 127 0" result="hardAlpha"/>
<feOffset dy="-7"/>
<feGaussianBlur stdDeviation="2.5"/>
<feComposite in2="hardAlpha" operator="arithmetic" k2="-1" k3="1"/>
<feColorMatrix type="matrix" values="0 0 0 0 0.8 0 0 0 0 0 0 0 0 0 1 0 0 0 0.25 0"/>
<feBlend mode="normal" in2="shape" result="effect1_innerShadow_1_2624"/>
<feColorMatrix in="SourceAlpha" type="matrix" values="0 0 0 0 0 0 0 0 0 0 0 0 0 0 0 0 0 0 127 0" result="hardAlpha"/>
<feOffset dx="4"/>
<feGaussianBlur stdDeviation="4.05"/>
<feComposite in2="hardAlpha" operator="arithmetic" k2="-1" k3="1"/>
<feColorMatrix type="matrix" values="0 0 0 0 0.14 0 0 0 0 1 0 0 0 0 0 0 0 0 0.25 0"/>
<feBlend mode="normal" in2="effect1_innerShadow_1_2624" result="effect2_innerShadow_1_2624"/>
</filter>
<linearGradient id="paint0_linear_1_2624" x1="46.9678" y1="18.4457" x2="47.3444" y2="76.4311" gradientUnits="userSpaceOnUse">
<stop stop-color="#61FF84"/>
<stop offset="1" stop-color="#418BE2"/>
</linearGradient>
</defs>
</svg>
