<svg width="315" height="415" viewBox="0 0 315 415" fill="none" xmlns="http://www.w3.org/2000/svg" class="play-triangle">
<g filter="url(#filter0_bi_22_534)">
<path d="M2 54.2364C2 49.2658 6.02944 45.2364 11 45.2364H170.817C173.604 45.2364 176.234 43.9449 177.938 41.7394L205.944 5.49699C207.648 3.29144 210.278 2 213.065 2L304 2C308.971 2 313 6.02944 313 11V404C313 408.971 308.971 413 304 413H11C6.02943 413 2 408.971 2 404V54.2364Z" fill="#C4C4C4" fill-opacity="0.1"/>
<path d="M314 404V11C314 5.47715 309.523 1 304 1H213.065C209.968 1 207.046 2.43493 205.152 4.88554L177.147 41.128C175.632 43.0884 173.294 44.2364 170.817 44.2364H11C5.47715 44.2364 1 48.7135 1 54.2364V404C1 409.523 5.47715 414 11 414H304C309.523 414 314 409.523 314 404Z" stroke="white" stroke-width="2"/>
</g>
<defs>
<filter id="filter0_bi_22_534" x="-81.8" y="-81.8" width="478.6" height="578.6" filterUnits="userSpaceOnUse" color-interpolation-filters="sRGB">
<feFlood flood-opacity="0" result="BackgroundImageFix"/>
<feGaussianBlur in="BackgroundImageFix" stdDeviation="40.9"/>
<feComposite in2="SourceAlpha" operator="in" result="effect1_backgroundBlur_22_534"/>
<feBlend mode="normal" in="SourceGraphic" in2="effect1_backgroundBlur_22_534" result="shape"/>
<feColorMatrix in="SourceAlpha" type="matrix" values="0 0 0 0 0 0 0 0 0 0 0 0 0 0 0 0 0 0 127 0" result="hardAlpha"/>
<feOffset dy="4"/>
<feGaussianBlur stdDeviation="17.35"/>
<feComposite in2="hardAlpha" operator="arithmetic" k2="-1" k3="1"/>
<feColorMatrix type="matrix" values="0 0 0 0 0 0 0 0 0 0 0 0 0 0 0 0 0 0 0.25 0"/>
<feBlend mode="normal" in2="shape" result="effect2_innerShadow_22_534"/>
</filter>
</defs>
</svg>
