<svg width="126" height="127" viewBox="0 0 126 127" fill="none" xmlns="http://www.w3.org/2000/svg">
<path d="M75.0763 16.5081L75.7063 18.2683L77.5195 18.7234C79.046 19.1066 80.291 19.474 81.3016 19.8394L81.303 19.8399C82.4289 20.2464 83.9534 20.8895 85.9185 21.8118L87.5057 22.5567L89.0527 21.7315L99.4096 16.2071L99.411 16.2063C99.5849 16.1135 99.7813 16.081 99.972 16.1113C100.162 16.1415 100.342 16.2333 100.483 16.3787C100.483 16.3793 100.484 16.3799 100.484 16.3805L109.585 25.8641C109.585 25.8644 109.585 25.8647 109.586 25.8649C109.828 26.119 109.896 26.4798 109.758 26.8065C109.758 26.807 109.758 26.8074 109.758 26.8079L104.902 38.2782L104.247 39.8269L105.046 41.3065C105.826 42.7493 106.432 43.9551 106.884 44.9361C107.368 46.0005 107.992 47.5197 108.758 49.5429L109.283 50.9292L110.644 51.517L121.964 56.4064L121.971 56.4095C122.314 56.5567 122.519 56.8971 122.498 57.2547C122.498 57.2555 122.498 57.2564 122.498 57.2573L121.668 70.4174C121.668 70.4185 121.668 70.4196 121.668 70.4207C121.655 70.5976 121.592 70.7644 121.489 70.9008C121.386 71.0378 121.248 71.1373 121.095 71.1913L121.088 71.1936L121.082 71.1961L110.359 75.0378L108.51 75.7003L108.113 77.6237C107.822 79.0279 107.531 80.1769 107.238 81.1081C106.725 82.6638 106.14 84.1944 105.485 85.6946L104.865 87.1148L105.499 88.5287L110.886 100.53L110.888 100.535C110.963 100.701 110.984 100.889 110.946 101.07C110.908 101.251 110.814 101.41 110.685 101.526L110.679 101.531L100.441 110.746C100.44 110.747 100.439 110.748 100.438 110.748C100.296 110.875 100.123 110.952 99.942 110.974C99.7602 110.996 99.5748 110.962 99.4097 110.874L88.8527 105.236L87.2045 104.356L85.556 105.236C84.0343 106.048 82.4646 106.765 80.856 107.383C80.8529 107.384 80.8498 107.385 80.8468 107.386L76.2541 109.119L74.7404 109.69L74.1947 111.213L70.1043 122.631C70.1039 122.632 70.1034 122.633 70.1029 122.634C70.0382 122.811 69.9241 122.959 69.7798 123.063C69.6349 123.167 69.4653 123.223 69.2933 123.226L69.2831 123.226L57.3135 123.499L57.3008 123.5C57.1232 123.504 56.9462 123.454 56.7938 123.351C56.6426 123.249 56.5215 123.1 56.4517 122.92C56.451 122.918 56.4503 122.916 56.4497 122.915L51.6304 110.06L51.0517 108.517L49.4931 107.98C47.9221 107.438 46.3665 106.853 44.8281 106.224C43.5957 105.685 42.3816 105.104 41.1881 104.483L39.7136 103.715L38.1866 104.372L26.219 109.528C26.2185 109.528 26.218 109.528 26.2175 109.528C26.0566 109.597 25.881 109.617 25.7109 109.587C25.5407 109.557 25.3794 109.477 25.2476 109.353C25.2471 109.353 25.2467 109.352 25.2462 109.352L16.3926 100.98L16.387 100.975C16.2621 100.857 16.1734 100.699 16.1384 100.521C16.1036 100.344 16.1251 100.16 16.1984 99.9974C16.1986 99.9969 16.1989 99.9965 16.1991 99.996L21.3436 88.6984L22.0442 87.1598L21.2746 85.6546C20.634 84.4018 20.0398 83.1254 19.4931 81.8281C18.8422 80.2044 18.2396 78.5616 17.6861 76.9016L17.1159 75.1917L15.3927 74.6628L4.11607 71.2021L4.10922 71.2C3.93559 71.1471 3.77864 71.0363 3.66639 70.8785C3.55457 70.7214 3.49479 70.5281 3.50036 70.3285C3.5004 70.3271 3.50044 70.3258 3.50048 70.3244L3.94058 58.1508C3.94063 58.1496 3.94068 58.1485 3.94073 58.1473C3.94778 57.9848 3.99845 57.8292 4.08483 57.6973C4.17169 57.5646 4.29046 57.462 4.42561 57.3973L4.43792 57.3913L16.2689 51.6637L17.7055 50.9682L18.1223 49.4276C18.6557 47.4562 19.1001 46.0043 19.468 44.9982C20.0231 43.5668 20.639 42.1602 21.314 40.7822L22.0525 39.2746L21.3391 37.755L16.2114 26.834C16.1349 26.6708 16.1109 26.4853 16.1448 26.3053C16.1787 26.1256 16.2675 25.9656 16.3932 25.8467L16.3932 25.8467L16.4011 25.8392L25.2442 17.4209C25.2446 17.4205 25.245 17.4202 25.2453 17.4199C25.3759 17.2961 25.5359 17.2157 25.705 17.1843C25.8745 17.1529 26.0497 17.1713 26.2106 17.2384L26.2123 17.2391L38.1693 22.2174L39.9056 22.9403L41.4667 21.8913C42.7028 21.0607 43.7979 20.4059 44.765 19.8902L44.7713 19.8868C45.8436 19.3122 47.3867 18.6554 49.4927 17.8986L51.0516 17.3384L51.6067 15.7777L55.7607 4.0981C55.7611 4.09708 55.7615 4.09607 55.7618 4.09506C55.8274 3.91447 55.9447 3.76324 56.093 3.65861C56.2418 3.55368 56.4159 3.4996 56.5915 3.50001H56.5996H69.7913C70.1727 3.50001 70.5061 3.74047 70.6289 4.08212C70.629 4.0824 70.6291 4.08268 70.6292 4.08295L75.0763 16.5081ZM63.1513 41.0701C50.7292 41.0701 40.6386 51.1017 40.6386 63.5119C40.6386 75.9207 50.7277 85.9601 63.1513 85.9601C75.5695 85.9601 85.6578 75.9199 85.6578 63.5119C85.6578 51.1032 75.575 41.0701 63.1513 41.0701Z" stroke="white" stroke-width="7"/>
</svg>
