<svg width="110" height="110" viewBox="0 0 110 110" fill="none" xmlns="http://www.w3.org/2000/svg">
<path d="M46.9163 55.031V55.0315C46.9167 57.15 47.7586 59.1816 49.2568 60.6794C49.2569 60.6795 49.257 60.6796 49.257 60.6797L65.7237 77.1463L65.739 77.1617L65.7547 77.1768C67.2614 78.632 69.2794 79.4373 71.3741 79.4191C73.4688 79.4009 75.4725 78.5607 76.9537 77.0795C78.435 75.5982 79.2751 73.5945 79.2933 71.4998C79.3115 69.4052 78.5063 67.3871 77.051 65.8804L77.036 65.8648L77.0206 65.8494L62.8942 51.723V27.5862C62.8942 25.4674 62.0525 23.4353 60.5543 21.9371C59.0561 20.4389 57.0241 19.5972 54.9052 19.5972C52.7864 19.5972 50.7544 20.4389 49.2562 21.9371C47.758 23.4353 46.9163 25.4674 46.9163 27.5862V55.031ZM54.9052 2.64136C83.8401 2.64136 107.295 26.0962 107.295 55.031C107.295 83.9658 83.8401 107.421 54.9052 107.421C25.9704 107.421 2.51562 83.9658 2.51562 55.031C2.51562 26.0962 25.9704 2.64136 54.9052 2.64136Z" stroke="white" stroke-width="5"/>
</svg>
