<svg width="61" height="58" viewBox="0 0 61 58" fill="none" xmlns="http://www.w3.org/2000/svg">
<path d="M30.6769 0.5L21.2651 18.2973C22.4917 17.1409 26.0701 14.7726 30.5708 14.5505C35.0715 14.3285 38.9093 16.9559 40.2657 18.2973L30.6769 0.5Z" fill="#F9F9F9"/>
<path d="M0 57.3612L18.2575 23.6053C17.7976 27.6643 19.5313 31.3071 24.2372 34.4294C28.9432 37.5517 35.7013 36.4416 36.1966 39.5639C36.692 42.6862 34.569 44.976 29.6508 44.7678C25.7162 44.6013 24.4024 40.3271 24.2372 38.2109L17.2668 38.6966C17.1135 39.7836 17.3517 42.9638 19.5313 46.9881C21.7109 51.0125 26.6197 52.0186 28.8016 52.0186L26.1479 57.3612H0Z" fill="#F9F9F9"/>
<path d="M42.9901 44.525C41.0936 50.1313 34.8639 51.8567 31.9861 52.0186L34.9229 57.5H61L42.8132 23.0502V26.4154H35.2413V24.5767C35.2413 23.7094 34.0029 21.489 30.5708 21.489C27.1386 21.489 24.9803 23.2931 25.8649 25.7562C26.7494 28.2194 36.9751 29.5377 39.2042 31.0642C41.4333 32.5907 45.3608 37.517 42.9901 44.525Z" fill="#F9F9F9"/>
<path d="M30.6769 0.5L21.2651 18.2973C22.4917 17.1409 26.0701 14.7726 30.5708 14.5505C35.0715 14.3285 38.9093 16.9559 40.2657 18.2973L30.6769 0.5Z" stroke="white" stroke-opacity="0.17"/>
<path d="M0 57.3612L18.2575 23.6053C17.7976 27.6643 19.5313 31.3071 24.2372 34.4294C28.9432 37.5517 35.7013 36.4416 36.1966 39.5639C36.692 42.6862 34.569 44.976 29.6508 44.7678C25.7162 44.6013 24.4024 40.3271 24.2372 38.2109L17.2668 38.6966C17.1135 39.7836 17.3517 42.9638 19.5313 46.9881C21.7109 51.0125 26.6197 52.0186 28.8016 52.0186L26.1479 57.3612H0Z" stroke="white" stroke-opacity="0.17"/>
<path d="M42.9901 44.525C41.0936 50.1313 34.8639 51.8567 31.9861 52.0186L34.9229 57.5H61L42.8132 23.0502V26.4154H35.2413V24.5767C35.2413 23.7094 34.0029 21.489 30.5708 21.489C27.1386 21.489 24.9803 23.2931 25.8649 25.7562C26.7494 28.2194 36.9751 29.5377 39.2042 31.0642C41.4333 32.5907 45.3608 37.517 42.9901 44.525Z" stroke="white" stroke-opacity="0.17"/>
</svg>
