<svg width="63" height="64" viewBox="0 0 63 64" fill="none" xmlns="http://www.w3.org/2000/svg">
<circle cx="31.4121" cy="31.8359" r="31.4141" fill="#BEBEBE"/>
<circle cx="31.4124" cy="31.8362" r="28.469" fill="white"/>
<path d="M5.96449 37.2926C5.49032 32.5508 8.89277 29.5872 11.8917 29.5872C12.8796 29.5885 14.737 29.3538 14.2628 28.4055C13.6701 27.22 14.2628 24.2528 16.6337 21.2892C19.0046 18.3256 24.339 16.5475 26.7099 18.3256C29.0808 20.1038 30.2662 19.511 32.0444 19.511C33.8225 19.511 33.7855 17.0211 38.5272 17.0234C43.269 17.0258 46.8623 20.1038 48.0477 24.2528C48.9961 27.572 50.0235 29.1921 50.4186 29.5872C51.2089 29.9824 53.2637 31.1283 55.1604 32.5508C57.5312 34.329 57.5312 43.2198 52.1968 44.4052C47.9292 45.3535 30.6614 45.1955 22.5609 44.9979C20.3876 45.1955 15.5668 45.4721 13.6701 44.9979L13.67 44.9979C11.2991 44.4052 6.5572 43.2197 5.96449 37.2926Z" fill="#BEBEBE"/>
<path d="M30.8138 19.3984V23.3993M30.8138 35.4018V27.4001M30.8138 27.4001C29.4308 26.1159 26.072 24.1402 23.7012 26.5111M30.8138 27.4001V23.3993M30.8138 23.3993C31.8017 22.0657 34.4886 19.8726 37.3337 21.7693" stroke="white"/>
<path d="M49.7737 28.875C49.7737 30.258 49.0624 33.1426 46.2174 33.6167M46.2174 33.6167C43.3723 34.0909 42.2659 33.8143 42.0684 33.6167M46.2174 33.6167C46.2174 34.407 46.8101 36.2247 49.181 37.1731" stroke="white"/>
<path d="M14.2224 28.875C14.2224 30.258 14.9337 33.1426 17.7787 33.6167M17.7787 33.6167C20.6238 34.0909 21.7302 33.8143 21.9277 33.6167M17.7787 33.6167C17.7787 34.407 17.186 36.2247 14.8151 37.1731" stroke="white"/>
<path d="M22.5163 44.8803C22.9115 43.2997 22.872 39.9015 19.5527 38.9531" stroke="white"/>
<path d="M41.6595 44.8803C41.2643 43.2997 41.3038 39.9015 44.623 38.9531" stroke="white"/>
</svg>
