<svg width="128" height="128" viewBox="0 0 128 128" fill="none" xmlns="http://www.w3.org/2000/svg">
<rect x="30.5065" y="52.9233" width="18.0006" height="42.4359" fill="white"/>
<path d="M39.5016 32.7166L60.4493 65.3012H18.5539L39.5016 32.7166Z" fill="white"/>
<rect width="18.0006" height="42.4359" transform="matrix(1 0 0 -1 78.8807 75.1482)" fill="white"/>
<path d="M87.8759 95.355L108.824 62.7703H66.9281L87.8759 95.355Z" fill="white"/>
<path d="M127.375 63.6875C127.375 98.8611 98.8611 127.375 63.6875 127.375C28.5139 127.375 0 98.8611 0 63.6875C0 28.5139 28.5139 0 63.6875 0C98.8611 0 127.375 28.5139 127.375 63.6875ZM6.14082 63.6875C6.14082 95.4697 31.9053 121.234 63.6875 121.234C95.4697 121.234 121.234 95.4697 121.234 63.6875C121.234 31.9053 95.4697 6.14082 63.6875 6.14082C31.9053 6.14082 6.14082 31.9053 6.14082 63.6875Z" fill="white"/>
</svg>
